Coordinates
version=1
nRows=32
nColumns=12
inDegrees=yes

Units are S.I. units (second, meters, Newtons, ...)
Angles are in degrees

endheader
time	SC_y	SC_z	SC_x	AC_y	AC_z	AC_x	GH_y	GH_z	GH_yy	EL_x	PS_y
       0.0              -18.69           38.2          14.75          52.04         0.6434        -0.4901         -58.59         -17.48          -35.1          45.15          30.31
   0.04093               -18.7           38.2          14.76          52.05         0.6429        -0.4919         -58.61         -17.48         -35.07          45.15          30.31
   0.08186               -18.7          38.19          14.76          52.05         0.6424        -0.4939         -58.62         -17.47         -35.04          45.15          30.31
    0.1228              -18.71          38.18          14.76          52.05         0.6418         -0.496         -58.64         -17.46         -35.01          45.15          30.31
    0.1637              -18.72          38.18          14.76          52.05         0.6412        -0.4982         -58.66         -17.45         -34.97          45.15          30.31
    0.2047              -18.72          38.17          14.77          52.06         0.6406        -0.5005         -58.67         -17.44         -34.93          45.15           30.3
    0.2456              -18.73          38.17          14.77          52.06           0.64        -0.5031         -58.69         -17.42         -34.89          45.15           30.3
    0.2865              -18.74          38.16          14.77          52.06         0.6393        -0.5058         -58.72         -17.41         -34.85          45.15           30.3
    0.3275              -18.75          38.15          14.77          52.06         0.6385        -0.5087         -58.74          -17.4         -34.81          45.14           30.3
    0.3684              -18.76          38.14          14.78          52.07         0.6377        -0.5118         -58.76         -17.39         -34.76          45.14           30.3
    0.4093              -18.77          38.13          14.78          52.07         0.6368        -0.5151         -58.79         -17.37         -34.71          45.14          30.29
    0.4503              -18.78          38.13          14.79          52.07         0.6359        -0.5187         -58.82         -17.35         -34.65          45.14          30.29
    0.4912              -18.79          38.12          14.79          52.08         0.6349        -0.5225         -58.85         -17.34         -34.59          45.14          30.29
    0.5321              -18.81           38.1           14.8          52.08         0.6338        -0.5267         -58.88         -17.32         -34.52          45.13          30.29
     0.573              -18.82          38.09           14.8          52.09         0.6326        -0.5312         -58.92          -17.3         -34.45          45.13          30.28
     0.614              -18.84          38.08          14.81          52.09         0.6313        -0.5361         -58.96         -17.28         -34.37          45.13          30.28
    0.6549              -18.86          38.07          14.81           52.1         0.6299        -0.5414          -59.0         -17.25         -34.29          45.13          30.27
    0.6958              -18.88          38.05          14.82          52.11         0.6284        -0.5472         -59.04         -17.22          -34.2          45.12          30.27
    0.7368               -18.9          38.03          14.83          52.11         0.6267        -0.5536         -59.09          -17.2          -34.1          45.12          30.27
    0.7777              -18.92          38.02          14.83          52.12         0.6249        -0.5605         -59.15         -17.16         -33.99          45.12          30.26
    0.8186              -18.94           38.0          14.84          52.13         0.6229        -0.5681         -59.21         -17.13         -33.87          45.11          30.26
    0.8596              -18.97          37.97          14.85          52.14         0.6207        -0.5765         -59.27         -17.09         -33.74          45.11          30.25
    0.9005               -19.0          37.95          14.86          52.15         0.6183        -0.5857         -59.35         -17.05         -33.59           45.1          30.24
    0.9414              -19.03          37.92          14.87          52.16         0.6156         -0.596         -59.43          -17.0         -33.43           45.1          30.24
    0.9824              -19.07          37.89          14.89          52.17         0.6126        -0.6074         -59.52         -16.95         -33.25          45.09          30.23
     1.023              -19.11          37.86           14.9          52.18         0.6092        -0.6201         -59.62          -16.9         -33.05          45.08          30.22
     1.064              -19.16          37.82          14.92           52.2         0.6055        -0.6344         -59.73         -16.83         -32.83          45.08          30.21
     1.105              -19.21          37.78          14.94          52.22         0.6013        -0.6504         -59.86         -16.76         -32.58          45.07           30.2
     1.146              -19.27          37.73          14.96          52.24         0.5965        -0.6685          -60.0         -16.68         -32.29          45.06          30.19
     1.187              -19.34          37.68          14.98          52.26         0.5911         -0.689         -60.16         -16.58         -31.97          45.05          30.17
     1.228              -19.41          37.62          15.01          52.28          0.585        -0.7125         -60.35         -16.48          -31.6          45.03          30.15
     1.269               -19.5          37.55          15.04          52.31         0.5779        -0.7394         -60.56         -16.36         -31.17          45.02          30.13
